<?xml version="1.0" standalone="no"?><!DOCTYPE svg PUBLIC "-//W3C//DTD SVG 1.1//EN" "http://www.w3.org/Graphics/SVG/1.1/DTD/svg11.dtd"><svg t="1629881963530" class="icon" viewBox="0 0 1024 1024" version="1.1" xmlns="http://www.w3.org/2000/svg" p-id="13967" xmlns:xlink="http://www.w3.org/1999/xlink" width="200" height="200"><defs><style type="text/css"></style></defs><path d="M986.44992 591.88224c-14.39232-13.0816-34.01216-16.29184-51.2512-19.03104-8.33024-1.3056-25.45152-4.16256-26.63936-7.72608-11.29472-35.55328-38.528-61.59872-64.80896-86.69184a766.52544 766.52544 0 0 1-10.3424-9.87136c3.09248-9.98912 11.0592-27.8272 16.16896-39.48032 6.66112-14.98112 13.54752-30.4384 17.82784-43.28448 2.72896-8.32 4.28032-14.98112 4.62848-20.80768 1.31072-18.90304-9.64096-27.35104-14.39744-30.08512l-4.16256-2.37568-4.75136-0.59392c-52.56704-7.0144-98.23232-2.61632-135.57248 13.0816-31.872 13.31712-50.42176 31.86688-60.5184 41.856l-0.83968 0.83456c-13.54752-0.59392-28.05248-2.85696-43.27936-5.11488-21.41184-3.21024-43.63264-6.53824-68.0192-6.53824-123.78112 0-217.37984 30.91968-278.13376 91.8016a246.96832 246.96832 0 0 0-26.51648 31.39072 345.50272 345.50272 0 0 1-25.56416-7.96672c11.29472-24.97024 15.93344-49.94048 14.98112-66.94912-1.664-29.4912-28.53888-55.6544-62.42816-60.76416-15.81568-2.3808-31.03744 0.11776-44.11904 7.13728-14.86336 7.96672-26.15808 21.52448-32.70144 39.12192-6.89664 18.432-5.59104 37.45792 3.6864 54.9376 9.87136 18.66752 28.42112 34.01216 48.87552 46.01856-1.31072 1.18784-2.73408 2.37568-4.16256 3.45088-23.90016 18.30912-54.9376 21.16608-92.16 8.80128-12.48256-4.16256-25.92256 2.49344-30.08512 14.98112s2.49856 25.92256 14.98624 30.09024c21.28384 7.13728 40.30976 9.984 57.19552 9.984 35.55328 0 61.47584-12.8512 78.95552-26.05056 7.7312-5.82144 14.62784-12.48256 20.80768-19.61472a408.25856 408.25856 0 0 0 27.4688 9.51296c-17.60256 38.88128-26.63936 83.82976-26.63936 133.05344 0 71.1168 34.72384 145.42848 95.13472 204.05248 6.656 6.42048 13.44 38.51776 16.64512 53.98016 6.89664 32.71168 11.53536 54.3488 30.32064 61.72672 26.04032 10.11712 100.00896 9.74336 123.90912 3.56352 17.95584-4.6336 22.94784-23.55712 27.8272-41.62048 0.3584-1.31072 0.83456-2.97984 1.3056-4.6336 19.14368 2.62144 35.5584 3.21024 55.29088 3.21024 20.68992 0 41.86112-1.42336 63.13984-4.28032 0.35328 1.54624 0.82944 3.09248 1.07008 4.39296 3.80928 15.09376 8.0896 32.10752 23.07072 40.66304 12.71808 7.36256 35.68128 8.67328 50.78528 8.67328 4.992 0 9.14432-0.11264 11.77088-0.24064 32.10752-1.54112 54.5792-8.32 66.94912-20.09088 9.04192-8.6784 11.41248-21.5296 14.51008-37.82656 3.68128-19.86048 8.79616-46.97088 24.48384-52.80256 40.07936-14.85312 54.23616-29.25056 75.62752-50.88256 4.0448-4.0448 8.21248-8.33024 13.09184-13.0816 3.31776-3.328 7.01952-7.3728 10.94144-11.78624 5.59104-6.17984 18.43712-20.57728 24.25856-23.54688 38.41024-4.99712 68.8384-24.61696 81.6896-52.56192 6.2976-13.79328 11.18208-42.44992 11.78112-69.80608 0.97792-39.18848-6.51264-66.06336-22.0928-80.20992zM166.53824 472.13056c-22.95296-12.7232-31.63136-23.54688-34.8416-29.60896-2.85696-5.58592-3.21024-10.34752-1.07008-16.17408 1.54624-4.16256 5.94432-16.16896 20.4544-16.16896 1.3056 0 2.85696 0.10752 4.39808 0.35328 12.01152 1.78688 21.64224 10.22976 22.00064 16.29184 0.5888 9.51808-2.7392 27.23328-10.94144 45.30688z m794.46016 199.65952c-0.71168 25.088-5.22752 45.312-7.49056 50.05824-5.8368 12.72832-23.55712 22.59968-45.31712 25.21088-20.33664 2.49856-37.57568 21.76512-52.80256 38.89152-3.45088 3.79904-6.53312 7.36768-8.80128 9.50784-5.12 4.99712-9.63072 9.63072-13.54752 13.67552-19.86048 20.21376-28.18048 28.53376-58.27072 39.71584-40.90368 15.104-49.46432 61.12256-54.71232 88.59648-0.82944 4.28544-1.78176 9.74848-2.72896 13.19936-4.52096 1.89952-15.09888 4.99712-33.77664 5.94432-15.81568 0.82944-28.29312-0.3584-34.4832-1.664-1.1776-3.32288-2.3808-8.20736-3.21024-11.53536-1.89952-7.49056-3.79904-15.22176-7.13728-22.00064-10.70592-21.64224-29.01504-20.57216-34.4832-19.61984a424.12544 424.12544 0 0 1-68.73088 5.59104c-26.04544 0-42.5728-1.31072-63.26272-5.11488-5.23264-0.95232-23.07072-2.2528-32.8192 21.40672-2.49856 6.07744-4.39808 13.33248-6.30272 20.34688-0.71168 2.61632-1.664 6.29248-2.61632 9.50272-21.4016 2.49344-62.3104 1.65888-80.0256-1.78688-2.25792-7.0144-4.99712-19.73248-6.89664-28.7744-6.42048-30.33088-13.0816-61.7216-30.08512-78.24896-51.2512-49.69984-80.7424-111.66208-80.7424-169.92256 0-73.02144 21.40672-131.39968 63.49824-173.4912 51.6096-51.6096 133.77536-77.76768 244.48-77.76768 20.80256 0 41.2672 3.09248 60.88704 6.0672 19.8656 2.97472 38.52288 5.82656 57.79456 5.82656 12.01152 0 19.62496-7.60832 26.98752-14.86336 16.53248-16.4096 49.46944-49.2288 133.78048-43.64288-4.03968 10.46528-9.87136 23.66464-14.0288 33.05984-6.07232 13.67552-12.3648 27.8272-16.4096 39.48032-3.5584 10.34752-11.05408 31.872 3.328 46.2592 5.9392 5.94944 12.01152 11.65312 17.82272 17.24416 22.94272 21.99552 44.71296 42.68544 52.33664 66.82624 4.62336 14.75072 15.09376 25.45664 30.7968 32.10752 10.70592 4.52096 22.24128 6.42048 33.41312 8.21248 9.63072 1.55136 22.94272 3.80928 26.86976 7.36256 2.05312 1.64864 7.51616 14.25408 6.68672 44.3392z" fill="#4C6070" p-id="13968"></path><path d="M954.46016 626.71872c-4.03968-3.21024-17.23904-5.46816-26.98752-7.0144-11.18208-1.78688-22.71744-3.6864-33.408-8.20736-15.81056-6.53824-26.14784-17.37216-30.80192-32.10752-7.6032-24.02304-29.36832-44.83584-52.33152-66.83136-5.82656-5.59104-11.88864-11.29984-17.82784-17.24416-14.39232-14.3872-6.90176-35.91168-3.32288-46.25408 4.0448-11.65312 10.34752-25.8048 16.4096-39.48032 4.16256-9.27744 9.98912-22.4768 14.03392-33.05984-84.32128-5.58592-117.248 27.23328-133.79072 43.64288-7.36256 7.3728-14.98112 14.86336-26.98752 14.86336-19.26656 0-38.05696-2.85696-57.79456-5.82656-19.73248-2.97472-40.05888-6.0672-60.88192-6.0672-110.70976 0-192.9984 26.1632-244.48512 77.76768-42.09664 42.2144-63.49824 100.59776-63.49824 173.49632 0 58.27584 29.36832 120.22272 80.7424 169.92768 17.12128 16.52736 23.66464 47.9232 30.08512 78.24384 1.90464 9.04192 4.63872 21.76 6.89664 28.77952 17.7152 3.44064 58.624 4.28032 80.0256 1.78176 0.95232-3.09248 1.90464-6.77888 2.61632-9.50784 1.90464-7.01952 3.80416-14.26944 6.30272-20.34176 9.74848-23.65952 27.58656-22.3488 32.8192-21.4016 20.68992 3.79904 37.2224 5.10976 63.25248 5.10976 22.47168 0 45.54752-1.89952 68.73088-5.59104 5.3504-0.82944 23.78752-2.02752 34.4832 19.61984 3.32288 6.76864 5.23264 14.51008 7.13728 22.00064 0.82944 3.31776 2.02752 8.21248 3.21024 11.54048 6.19008 1.1776 18.66752 2.37056 34.48832 1.65888 18.54464-0.96256 29.25056-4.03968 33.77152-5.9392 0.82944-3.46112 1.89952-8.91904 2.72896-13.19936 5.12-27.4688 13.79328-73.49248 54.71232-88.59136 30.09024-11.19232 38.41024-19.51744 58.27072-39.7312a1355.4688 1355.4688 0 0 1 13.54752-13.67552c2.2528-2.14528 5.46816-5.8368 8.81152-9.50272 15.22176-17.00352 32.56832-36.38784 52.80256-38.89664 21.76-2.61632 39.48032-12.60544 45.312-25.21088 2.14016-4.76672 6.77888-24.85248 7.49056-50.05312 0.80384-29.94688-4.6592-42.6752-6.56384-44.6976z m-325.3504-119.14752a23.8336 23.8336 0 0 1-33.29024 4.75648c-4.04992-2.85184-24.73984-8.91904-62.79168-8.91904h-0.59392c-36.15232 0-63.26272 5.7088-73.0112 10.94144a24.77568 24.77568 0 0 1-11.0592 2.62144 23.90528 23.90528 0 0 1-21.04832-12.61056 23.72608 23.72608 0 0 1 9.87136-32.10752c28.77952-15.22176 80.62464-16.4096 95.84128-16.4096 24.97024 0 70.04672 2.37568 91.33056 18.432a23.8592 23.8592 0 0 1 4.75136 33.29536z" fill="#F9C0C9" p-id="13969"></path><path d="M446.34112 112.34304c-0.02048 45.7728 37.07392 82.89792 82.85184 82.9184 45.76768 0.02048 82.8928-37.0688 82.91328-82.84672v-0.07168c0.0256-45.7728-37.07392-82.89792-82.85184-82.9184-45.7728-0.02048-82.89792 37.0688-82.9184 82.84672a0.3584 0.3584 0 0 1 0.00512 0.07168z" fill="#FFDD00" opacity=".63" p-id="13970"></path><path d="M611.39456 311.41376c-9.87648 0-17.83296-5.39136-17.83296-12.06784V228.13696c0-6.6816 7.97184-12.07296 17.83296-12.07296 9.86112 0 17.83296 5.39136 17.83296 12.07296v71.21408c0 6.67648-7.9616 12.06272-17.83296 12.06272z m-82.176 39.48544c-9.87136 0-17.83296-8.30464-17.83296-18.59072V250.0096c0-10.2912 7.96672-18.5856 17.83296-18.5856 9.87648 0 17.83808 8.30464 17.83808 18.5856v82.29888c0.00512 10.28608-7.9616 18.59072-17.83808 18.59072z m-73.00608-50.41152a17.8176 17.8176 0 0 1-17.83808-17.83808v-26.39872c0-9.87136 7.96672-17.83808 17.83808-17.83808s17.83296 7.96672 17.83296 17.83808v26.39872a17.80736 17.80736 0 0 1-17.83296 17.83808z m156.25216 428.97408H555.9808v-29.96224h56.48384a17.81248 17.81248 0 0 0 17.83296-17.83808 17.8176 17.8176 0 0 0-17.83296-17.83808h-42.33728l55.77216-65.62816a17.73568 17.73568 0 0 0-2.0224-25.07776c-7.49056-6.42048-18.66752-5.46816-25.088 2.0224l-60.99968 71.71072h-0.59904l-60.05248-70.15936a17.74592 17.74592 0 0 0-25.088-2.0224 17.73056 17.73056 0 0 0-2.0224 25.07776l54.81984 64.1024h-41.26208a17.8176 17.8176 0 0 0-17.83808 17.83808 17.81248 17.81248 0 0 0 17.83808 17.82784H520.192v29.97248H463.58528c-9.87136 0-17.83808 7.97184-17.83808 17.82784s7.96672 17.82784 17.83808 17.82784H520.192v48.29184c0 9.87136 7.97696 17.82784 17.83296 17.82784s17.83296-7.97184 17.83296-17.82784v-48.29184h56.60672c9.87136 0 17.83296-7.97184 17.83296-17.82784s-7.9616-17.85344-17.83296-17.85344z m211.00032-148.0192c0 9.8816-8.87296 17.83296-19.87584 17.83296h-117.32992c-10.99776 0-19.88096-7.96672-19.88096-17.83296s8.87808-17.82272 19.88096-17.82272h117.32992c11.00288-0.01536 19.87584 7.95136 19.87584 17.82272z" fill="#4C6070" p-id="13971"></path></svg>